<svg height="511pt" viewBox="-30 1 511 511.999" width="511pt" xmlns="http://www.w3.org/2000/svg"><path d="m394.066406 324.195312v-31.539062c0-5.519531-4.476562-9.992188-9.996094-9.992188-5.515624 0-9.992187 4.472657-9.992187 9.992188v24.738281c-6.914063-1.542969-14.09375-2.363281-21.464844-2.363281-7.371093 0-14.554687.820312-21.46875 2.363281v-188.839843h42.933594v73.710937c0 5.519531 4.476563 9.996094 9.996094 9.996094 5.515625 0 9.992187-4.476563 9.992187-9.996094v-83.707031c0-5.519532-4.476562-9.992188-9.992187-9.992188h-52.929688v-98.238281c.332031-5.855469-4.144531-10.328125-9.660156-10.328125h-240.019531c-5.519532 0-9.996094 4.472656-10.328125 10.328125v98.238281h-60.644531c-5.519532 0-9.992188 4.472656-9.992188 9.992188v321.480468c0 .886719.117188 1.746094.332031 2.5625v29.8125c0 21.644532 17.609375 39.253907 39.253907 39.253907h304.449218c2.664063.214843 5.355469.332031 8.074219.332031 54.304687 0 98.484375-44.179688 98.484375-98.484375 0-39.503906-23.378906-73.644531-57.027344-89.320313zm-82.910156-215.628906h-50.652344v-88.246094h50.652344zm-70.636719-88.246094v88.246094h-78.757812v-88.246094zm-149.394531 0h50.652344v88.246094h-50.652344zm-19.988281 108.234376v75.136718c.332031 5.1875 4.808593 9.660156 10.328125 9.660156 5.515625 0 9.992187-4.472656 9.660156-9.660156v-75.136718h149.394531v75.136718c.332031 5.1875 4.808594 9.660156 10.324219 9.660156 5.519531 0 9.996094-4.472656 9.660156-9.660156v-75.136718h50.652344v195.640624c-33.648438 15.679688-57.027344 49.816407-57.027344 89.320313 0 5.515625.460938 10.925781 1.339844 16.199219h-234.980469v-301.160156zm-31.050781 363.125c-10.625 0-19.265626-8.640626-19.265626-19.265626v-22.378906h240.332032c6.640625 16.574219 17.660156 30.933594 31.621094 41.644532zm317.050781.199218c-.640625-.128906-1.308594-.199218-1.992188-.199218h-9.730469c-39.921874-3.644532-71.300781-37.304688-71.300781-78.164063 0-43.285156 35.214844-78.496094 78.496094-78.496094 43.285156 0 78.5 35.214844 78.5 78.496094 0 41.765625-32.785156 76.011719-73.972656 78.363281zm0 0"/><path d="m381.402344 403.1875h-18.464844v-18.460938c0-5.519531-4.476562-9.996093-9.996094-9.996093-5.515625 0-9.992187 4.476562-9.992187 9.996093v18.460938h-18.460938c-5.519531 0-9.996093 4.476562-9.996093 9.996094 0 5.519531 4.476562 9.992187 9.996093 9.992187h18.460938v18.464844c0 5.515625 4.476562 9.992187 9.992187 9.992187 5.519532 0 9.996094-4.476562 9.996094-9.992187v-18.464844h18.464844c5.515625 0 9.992187-4.472656 9.992187-9.992187 0-5.519532-4.476562-9.996094-9.992187-9.996094zm0 0"/><path d="m384.40625 256.941406c-4.175781 0-8-2.703125-9.40625-6.628906-1.386719-3.863281-.203125-8.335938 2.941406-10.984375 3.285156-2.765625 8.082032-3.140625 11.738282-.871094 3.492187 2.171875 5.324218 6.410157 4.519531 10.441407-.917969 4.609374-5.085938 8.042968-9.792969 8.042968zm0 0"/></svg>