<svg id="Capa_1" enable-background="new 0 0 512 512" height="512" viewBox="0 0 512 512" width="512" xmlns="http://www.w3.org/2000/svg"><g><path d="m391.85 306.049h-30v55.101h-55.101v30h55.101v55.101h30v-55.101h55.1v-30h-55.1z"/><path d="m421.625 248.736v-248.736h-421.625v421.625h248.736c18.631 52.596 68.865 90.375 127.764 90.375 74.715 0 135.5-60.785 135.5-135.5 0-58.9-37.779-109.133-90.375-127.764zm-150.625-218.736h120.625v30.251h-120.625zm-90.375 0h60.375v102.458l-30.188-13.361-30.188 13.361v-102.458zm-150.625 0h120.625v30.251h-120.625zm211.849 361.625h-211.849v-301.374h120.625v88.293l60.188-26.639 60.187 26.639v-88.293h120.625v151.598c-4.967-.555-10.012-.849-15.125-.849-74.715 0-135.5 60.785-135.5 135.5 0 5.113.294 10.158.849 15.125zm134.651 90.375c-58.173 0-105.5-47.327-105.5-105.5s47.327-105.5 105.5-105.5 105.5 47.327 105.5 105.5-47.327 105.5-105.5 105.5z"/></g></svg>