<svg id="Capa_1" enable-background="new 0 0 512 512" height="512" viewBox="0 0 512 512" width="512" xmlns="http://www.w3.org/2000/svg"><g><path d="m161.098 173.504h-86.086c-10.381 0-18.827 8.446-18.827 18.827v67.962c0 10.381 8.446 18.827 18.827 18.827h86.085c10.381 0 18.827-8.446 18.827-18.827v-67.962c0-10.381-8.445-18.827-18.826-18.827zm3.826 18.827v26.481h-39.37v-30.309h35.543c2.111.001 3.827 1.718 3.827 3.828zm-93.739 67.962v-67.962c0-2.11 1.717-3.827 3.827-3.827h35.542v75.616h-35.542c-2.11 0-3.827-1.717-3.827-3.827zm89.913 3.827h-35.543v-30.308h39.37v26.48c-.001 2.111-1.717 3.828-3.827 3.828z"/><path d="m56.185 365.768c0 4.143 3.358 7.5 7.5 7.5h220.702c4.142 0 7.5-3.357 7.5-7.5s-3.358-7.5-7.5-7.5h-220.702c-4.142 0-7.5 3.357-7.5 7.5z"/><path d="m63.685 386.834c-4.142 0-7.5 3.357-7.5 7.5s3.358 7.5 7.5 7.5h110.351c4.142 0 7.5-3.357 7.5-7.5s-3.358-7.5-7.5-7.5z"/><path d="m196.878 329.987v-18.132c0-4.143-3.358-7.5-7.5-7.5s-7.5 3.357-7.5 7.5v18.132c0 4.143 3.358 7.5 7.5 7.5s7.5-3.357 7.5-7.5z"/><path d="m231.159 329.987v-18.132c0-4.143-3.358-7.5-7.5-7.5s-7.5 3.357-7.5 7.5v18.132c0 4.143 3.358 7.5 7.5 7.5s7.5-3.357 7.5-7.5z"/><path d="m265.438 329.987v-18.132c0-4.143-3.358-7.5-7.5-7.5s-7.5 3.357-7.5 7.5v18.132c0 4.143 3.358 7.5 7.5 7.5s7.5-3.357 7.5-7.5z"/><path d="m299.719 329.987v-18.132c0-4.143-3.358-7.5-7.5-7.5s-7.5 3.357-7.5 7.5v18.132c0 4.143 3.358 7.5 7.5 7.5s7.5-3.357 7.5-7.5z"/><path d="m341.852 311.855v18.132c0 4.143 3.358 7.5 7.5 7.5s7.5-3.357 7.5-7.5v-18.132c0-4.143-3.358-7.5-7.5-7.5s-7.5 3.358-7.5 7.5z"/><path d="m376.132 311.855v18.132c0 4.143 3.358 7.5 7.5 7.5s7.5-3.357 7.5-7.5v-18.132c0-4.143-3.358-7.5-7.5-7.5s-7.5 3.358-7.5 7.5z"/><path d="m410.412 311.855v18.132c0 4.143 3.358 7.5 7.5 7.5s7.5-3.357 7.5-7.5v-18.132c0-4.143-3.358-7.5-7.5-7.5s-7.5 3.358-7.5 7.5z"/><path d="m63.685 337.487c4.142 0 7.5-3.357 7.5-7.5v-18.132c0-4.143-3.358-7.5-7.5-7.5s-7.5 3.357-7.5 7.5v18.132c0 4.143 3.358 7.5 7.5 7.5z"/><path d="m105.465 329.987v-18.132c0-4.143-3.358-7.5-7.5-7.5s-7.5 3.357-7.5 7.5v18.132c0 4.143 3.358 7.5 7.5 7.5s7.5-3.357 7.5-7.5z"/><path d="m139.745 329.987v-18.132c0-4.143-3.358-7.5-7.5-7.5s-7.5 3.357-7.5 7.5v18.132c0 4.143 3.358 7.5 7.5 7.5s7.5-3.357 7.5-7.5z"/><path d="m512 141.825c0-42.014-34.181-76.194-76.194-76.194-37.631 0-68.956 27.428-75.087 63.338h-194.069c-4.142 0-7.5 3.357-7.5 7.5s3.358 7.5 7.5 7.5h192.992c1.147 41.289 35.225 74.034 76.135 74.049.01 0 .019.001.029.001s0 0 0 0c.008 0 .016-.001.025-.001 10.956-.004 21.578-2.414 30.766-6.479v126.127c0 4.143 3.358 7.5 7.5 7.5s7.5-3.357 7.5-7.5v-134.987c18.451-13.918 30.403-36.015 30.403-60.854zm-76.194-61.194c33.743 0 61.194 27.452 61.194 61.194 0 33.807-27.529 61.193-61.194 61.193-34.403 0-62.536-28.635-61.131-63.672 1.57-33.7 29.096-58.715 61.131-58.715z"/><path d="m415.059 170.69c2.539 4.114 8.259 4.79 11.686 1.365l48.51-48.511c2.929-2.93 2.929-7.678 0-10.607-2.929-2.928-7.678-2.928-10.606 0l-41.805 41.806-16.176-26.212c-2.174-3.525-6.796-4.618-10.321-2.444-3.525 2.176-4.619 6.797-2.444 10.321z"/><path d="m474.097 365.166c-4.142 0-7.5 3.357-7.5 7.5v30.932c0 15.313-12.458 27.771-27.772 27.771h-396.053c-15.314 0-27.772-12.458-27.772-27.771v-231.857c0-15.313 12.458-27.772 27.772-27.772h88.878c4.142 0 7.5-3.357 7.5-7.5s-3.358-7.5-7.5-7.5h-88.878c-23.584 0-42.772 19.187-42.772 42.772v231.856c0 23.584 19.188 42.771 42.772 42.771h396.053c23.584 0 42.772-19.188 42.772-42.771v-30.932c0-4.142-3.358-7.499-7.5-7.499z"/><path d="m434.485 267.589v-22.171c0-6.357-5.173-11.53-11.531-11.53h-76.59c-6.358 0-11.531 5.173-11.531 11.53v22.171c0 6.358 5.173 11.531 11.531 11.531h76.59c6.358 0 11.531-5.173 11.531-11.531zm-15-3.469h-69.653v-15.232h69.653z"/></g></svg>