<svg id="Layer_1" enable-background="new 0 0 256 256" height="512" viewBox="0 0 256 256" width="512" xmlns="http://www.w3.org/2000/svg"><g id="Layer_53"><g><path d="m31.3 52.6 26.4-26.4c1.9-1.9 4.3-3.4 6.9-4.3l28.9-9.9c-5 9.1-.9 20.3 1.3 25.2.6 1.4 2.2 1.9 3.6 1.3l10-4.5 6.2 8.4v129.1s-25-2-47.6-12.6c-2.4-1.2-4-3.6-3.9-6.4l2.1-76c0-.8-.6-1.4-1.4-1.5-.3 0-.6.1-.8.2l-8.6 5.8c-1.5 1-3.4.7-4.5-.7l-18.9-23.2c-1-1.4-.9-3.3.3-4.5z" fill="#ef4460"/><path d="m108.3 33.9 6.2 8.4 6.2-8.4c18-23.6 3.4-31.4 3.4-31.4h-19.1s-14.6 7.9 3.3 31.4z" fill="#ef4460"/><path d="m134.2 96.8h89.8v11.2h-89.8z" fill="#3a70bf"/><path d="m187.5 242.3h38.2v11.2h-38.2z" fill="#3a70bf"/><path d="m132.5 242.3h38.2v11.2h-38.2z" fill="#3a70bf"/><path d="m222.6 242.3 1.4-134.2h-44.9v41.5l10.3 92.7z" fill="#5290db"/><path d="m135.6 242.3h33.1l10.4-92.7v-41.5h-44.9z" fill="#5290db"/><path d="m134.2 108.1v-11.3h30.4l-.6-20.3c0-.8.6-1.4 1.4-1.5.3 0 .6.1.8.2l8.6 5.8c1.5 1 3.4.7 4.5-.7l18.7-23.2c1.1-1.3 1-3.3-.2-4.5l-26.4-26.4c-1.9-1.9-4.3-3.4-6.9-4.3l-28.9-9.9c5 9.1.9 20.3-1.3 25.2-.6 1.4-2.2 1.9-3.6 1.3l-10-4.5-6.2 8.4v129.1c6.8-.7 13.6-1.8 20.3-3.4z" fill="#ef4460"/><g fill="#fc657e"><path d="m124.1 2.5s14.6 7.9-3.4 31.4l10 4.5c1.4.6 3 0 3.6-1.3 3.1-6.8 10-26.3-10.2-34.6z"/><path d="m105 2.5s-14.6 7.9 3.4 31.4l-10 4.5c-1.4.6-3 0-3.6-1.3-3.2-6.8-10.1-26.3 10.2-34.6z"/><path d="m171.4 26.2c-1.5-1.4-3.1-2.6-5-3.5-2.7 9.2-7.8 31.1-1.5 52.5.4-.2.9-.1 1.3.1l8.6 5.8c1.5 1 3.4.7 4.5-.7l18.7-23.3c1.1-1.3 1-3.3-.2-4.5z"/><path d="m57.7 26.2c1.5-1.4 3.1-2.6 5-3.5 2.7 9.2 7.8 31.1 1.5 52.5-.4-.2-.9-.1-1.3.1l-8.6 5.8c-1.5 1-3.4.7-4.5-.7l-18.8-23.3c-1.1-1.3-1-3.3.2-4.5z"/></g><path d="m176.3 96.8c-3.1 0-5.6 2.5-5.7 5.6 0 3.1 2.5 5.6 5.6 5.7h.1 47.7v-11.3z" fill="#3a70bf"/><path d="m188.1 102.5c0-3.1-2.5-5.6-5.6-5.6h-6.2c-3.1 0-5.6 2.5-5.7 5.6 0 3.1 2.5 5.6 5.6 5.7h.1 6.2c3.1-.1 5.6-2.6 5.6-5.7z" fill="#29589f"/><path d="m211.7 122c0 7 5.1 13 12.1 14l.3-27.9h-12.4z" fill="#29589f"/><path d="m146.5 122c0 7-5.1 13-12.1 14l-.3-27.9h12.4z" fill="#29589f"/><path d="m168.4 136.7 10.7 8.3v-36.9h-10.7z" fill="#3a70bf"/><circle cx="49" cy="108.4" fill="#f5c84c" r="3.1"/><circle cx="118" cy="209.4" fill="#87d147" r="3.1"/><circle cx="223" cy="57.4" fill="#fc657e" r="3.1"/><path d="m216.8 30.3c-4.3-.8-7.8-4.1-8.6-8.5 0-.1-.1-.2-.2-.2s-.1.1-.2.2c-.9 4.3-4.3 7.7-8.6 8.5-.1 0-.2.1-.2.2s.1.1.2.2c4.3.8 7.8 4.1 8.6 8.5 0 .1.1.2.2.2s.1-.1.2-.2c.9-4.3 4.3-7.7 8.6-8.5.1 0 .2-.1.2-.2s-.1-.2-.2-.2z" fill="#f5c84c"/><path d="m98.9 186h-2.1v-2.1c0-1.6-1.3-2.9-2.9-2.9s-2.9 1.3-2.9 2.9v2.1h-2.1c-1.6 0-2.9 1.3-2.9 2.9s1.3 2.9 2.9 2.9h2.1v2.1c0 1.6 1.3 2.9 2.9 2.9s2.9-1.3 2.9-2.9v-2.1h2.1c1.6 0 2.9-1.3 2.9-2.9s-1.3-2.9-2.9-2.9z" fill="#70d6f9"/><path d="m185 242.3v11.2c0 1.4 1.1 2.5 2.5 2.5h38.2c1.4 0 2.5-1.1 2.5-2.5v-11.2c0-1.4-1.1-2.5-2.5-2.5h-.6l1.1-103.8c.7-65.7-.1 7.3.3-39.2 0-1.4-1.1-2.5-2.5-2.5h-57l-.4-15.8 6.9 4.6c2.5 1.7 5.9 1.2 7.8-1.2l18.6-23.3c1.9-2.3 1.7-5.7-.4-7.8l-26.4-26.4c-2.2-2.2-4.9-3.8-7.8-4.9l-28.1-9.6c-2.6-4.2-6.7-7.5-12.2-9.7-.3-.1-.6-.2-.9-.2h-19.1c-.3 0-.6.1-1 .2-5.6 2.3-9.6 5.5-12.2 9.7l-28.1 9.6c-2.9 1-5.6 2.7-7.8 4.9l-26.4 26.4c-2.1 2.1-2.3 5.5-.4 7.8l18.6 23.3c1.9 2.4 5.3 2.9 7.8 1.2l6.9-4.6-2 73.9c-.1 3.7 2 7.1 5.3 8.7 22.8 10.7 47.5 12.8 48.5 12.8h.2s.1 0 .2 0c5.9-.6 11.8-1.5 17.6-2.8l.7 68.5h-.6c-1.4 0-2.5 1.1-2.5 2.5v11.2c0 1.4 1.1 2.5 2.5 2.5h38.2c1.4 0 2.5-1.1 2.5-2.5v-11.2c0-1-.7-2-1.6-2.3l7.6-67.8 7.6 67.8c-.9.5-1.6 1.4-1.6 2.5zm38.2 8.7h-33.2v-6.2h33.2zm-9-140.4h7.3l-.2 22.1c-4.3-1.8-7.1-6.1-7.1-10.7zm7.3-5h-31.6c.8-2 .8-4.2 0-6.2h31.6zm-39-6.3c1.7 0 3.1 1.4 3.2 3.1 0 1.7-1.4 3.1-3.1 3.2 0 0 0 0-.1 0h-6.2c-1.7 0-3.1-1.4-3.1-3.2 0-1.7 1.4-3.1 3.1-3.1zm-5.9 40.6-5.7-4.4v-24.9h5.7zm-39.9-29.3h7.3v11.4c0 4.7-2.8 8.9-7.1 10.7zm0-5v-6.2h32.1c-.8 2-.8 4.2 0 6.2zm59.3-50.1-18.6 23.3c-.3.4-.8.4-1.2.2l-8.6-5.8c-.2-.1-.4-.3-.7-.4 0 0 0 0-.1 0-4.8-18.2-1.4-36.7 1.1-46.3.6.4 1.2.9 1.7 1.4l26.4 26.5c.3.3.3.8 0 1.1zm-64-19.4c0 .1-.2.2-.3.1l-7.2-3.3c4.4-6.2 8.5-14.2 7.5-21.8 5.4 6.9 3.7 17 0 25zm-29.9-25.2c.5-2.3 1.7-4.4 3.6-5.9h17.6c2.2 1.7 3.5 4.2 3.8 6.9 1.1 10.3-10.1 22.3-12.6 26.2-2.6-4.1-14.5-16.8-12.4-27.2zm2.4 22-7.2 3.3c-.1 0-.2 0-.3-.1-3.7-8-5.5-18.1 0-25-1 7.6 3.2 15.6 7.5 21.8zm-51.7 46.1c-.4.2-.9.2-1.2-.2l-18.6-23.3c-.3-.3-.3-.8.1-1.2l26.3-26.3c.5-.5 1.1-1 1.7-1.4 2.5 9.6 5.9 28.1 1.1 46.3-.3.1-.5.2-.8.4zm12.7 73.6 2.1-76c0-.8-.2-1.5-.6-2.2 5.4-20.2 1.4-40.5-1.3-50.3l23.6-8.1c-1.7 7.2.1 15.3 3.3 22.1 1.2 2.6 4.3 3.7 6.9 2.6l8.1-3.7 4.5 6.1v125.6c-7-.8-26.4-3.8-44.1-12.1-1.6-.7-2.6-2.3-2.5-4zm51.5 16.1v-125.5l4.5-6.1 8.1 3.7c2.6 1.2 5.7 0 6.9-2.6.3-.6.6-1.3.8-1.8 2.1-5 4.3-12.8 2.5-20.4l23.6 8.1c-2.7 9.8-6.7 30.1-1.3 50.3-.4.6-.6 1.4-.6 2.2l.5 17.7h-27.8c-1.4 0-2.5 1.1-2.5 2.5l.3 39.2.3 30.1c-6.7 1.5-12.2 2.3-15.3 2.6zm20-30.8c7.1-2.1 12-8.6 12-16v-11.4h16.9v26.1c0 .8.4 1.5 1 2l9.7 7.5v3.3l-10.1 90.3h-28.4zm31.2 113.1h-33.2v-6.2h33.2zm13.4-140.4h27.6v11.4c0 7.4 4.9 13.9 12 16l-1.1 101.8h-28.4l-10.1-90.3z"/></g></g></svg>