<svg id="Capa_1" enable-background="new 0 0 512 512" height="512" viewBox="0 0 512 512" width="512" xmlns="http://www.w3.org/2000/svg"><g><g><g><g fill="#8f8b81"><path d="m132.758 389.903-47.474 52.221c-2.221 2.443-5.369 3.836-8.67 3.836h-32.34c-5.086 0-7.757-6.036-4.335-9.8l42.051-46.257z"/><path d="m379.242 389.903 47.474 52.221c2.221 2.443 5.369 3.836 8.67 3.836h32.34c5.086 0 7.757-6.036 4.335-9.8l-42.051-46.257z"/></g><g fill="#706c64"><path d="m99.959 425.982 32.799-36.079h-50.768l-32.799 36.079z"/><path d="m462.809 425.982-32.799-36.079h-50.768l32.799 36.079z"/></g><g><path d="m497 408.969h-482c-8.284 0-15-6.716-15-15v-312.925c0-8.284 6.716-15 15-15h482c8.284 0 15 6.716 15 15v312.925c0 8.284-6.716 15-15 15z" fill="#706c64"/><path d="m497 408.969h-482c-8.284 0-15-6.716-15-15v-312.925c0-8.284 6.716-15 15-15h482c8.284 0 15 6.716 15 15v312.925c0 8.284-6.716 15-15 15z" fill="#b5b1a4"/><path d="m512 81.042v312.93c0 8.28-6.72 15-15 15h-238.36c123.6-31.71 214.96-143.86 214.96-277.35 0-22.57-2.61-44.52-7.55-65.58h30.95c8.28 0 15 6.72 15 15z" fill="#8f8b81"/><path d="m512 81.041v280.77h-512v-280.77c0-8.28 6.72-15 15-15h482c8.28 0 15 6.72 15 15z" fill="#595751"/><path d="m512 81.041v280.77h-154.43c70.4-52.17 116.03-135.85 116.03-230.19 0-22.57-2.61-44.52-7.55-65.58h30.95c8.28 0 15 6.72 15 15z" fill="#44433f"/></g></g><path d="m159.874 408.969h-111.339c-13.022 0-23.579-10.557-23.579-23.579 0-13.022 10.557-23.579 23.579-23.579h111.339c13.022 0 23.579 10.557 23.579 23.579-.001 13.022-10.557 23.579-23.579 23.579z" fill="#d8d4c9"/><path d="m108.491 361.812h-29.191c-13.022 0-23.579 10.557-23.579 23.579 0 13.022 10.557 23.579 23.579 23.579h29.192c13.022 0 23.579-10.557 23.579-23.579-.001-13.023-10.558-23.579-23.58-23.579z" fill="#e8e4d8"/><g><path d="m0 269.699v-149.02c0-11.581 9.389-20.97 20.97-20.97 11.581 0 20.97 9.389 20.97 20.97v149.02c0 11.581-9.389 20.97-20.97 20.97-11.582 0-20.97-9.389-20.97-20.97z" fill="#706c64"/><path d="m41.94 174.002v-25.962c0-11.581-9.388-20.97-20.97-20.97-11.581 0-20.97 9.389-20.97 20.97v25.962c0 11.581 9.388 20.97 20.97 20.97 11.581 0 20.97-9.389 20.97-20.97z" fill="#8f8b81"/></g></g><g><g><path d="m219.099 294.374 90.325-57.259c15.486-9.817 15.486-32.413 0-42.23l-90.325-57.259c-16.645-10.552-38.385 1.407-38.385 21.115v114.518c-.001 19.708 21.74 31.667 38.385 21.115z" fill="#fe255f"/></g></g><g><g><path d="m309.426 237.112-90.33 57.26c-16.64 10.55-38.38-1.4-38.38-21.11v-11.31c49.3-2.09 88.82-41.91 90.45-91.32l38.26 24.25c15.48 9.82 15.48 32.42 0 42.23z" fill="#e01152"/></g></g></g><path d="m373.718 228.727c-4.112-2.065-9.119-.405-11.183 3.708l-20.076 39.996-20.075-39.996c-1.414-2.816-4.295-4.594-7.446-4.594h-50.722c-4.601 0-8.331 3.73-8.331 8.331s3.73 8.331 8.331 8.331h17.029v46.499c0 4.601 3.73 8.331 8.331 8.331s8.331-3.73 8.331-8.331v-46.499h11.89l25.215 50.236c1.414 2.816 4.295 4.594 7.446 4.594s6.032-1.778 7.446-4.594l27.522-54.83c2.065-4.111.404-9.118-3.708-11.182z" fill="#fff"/></svg>